<svg width="48" height="48" viewBox="0 0 48 48" fill="none" xmlns="http://www.w3.org/2000/svg">
<rect width="48" height="48" fill="#090909"/>
<path d="M26.7925 45.2236L40.9467 31.5763C42.537 30.043 42.537 27.5569 40.9467 26.0235L26.7925 12.3763C25.2022 10.8429 22.6238 10.8429 21.0335 12.3763L6.8794 26.0235C5.28909 27.5569 5.28909 30.043 6.8794 31.5763L21.0335 45.2236C22.6238 46.7569 25.2022 46.7569 26.7925 45.2236Z" fill="#717171"/>
<path d="M26.7925 40.4237L40.9467 26.7764C42.537 25.243 42.537 22.757 40.9467 21.2236L26.7925 7.57634C25.2022 6.04298 22.6238 6.04298 21.0335 7.57634L6.8794 21.2236C5.28909 22.757 5.28909 25.243 6.8794 26.7764L21.0335 40.4237C22.6238 41.957 25.2022 41.957 26.7925 40.4237Z" fill="#D7D7D7"/>
<path d="M26.7925 35.6236L40.9467 21.9764C42.537 20.443 42.537 17.9569 40.9467 16.4236L26.7925 2.7763C25.2022 1.24293 22.6238 1.24293 21.0335 2.7763L6.8794 16.4236C5.28909 17.9569 5.28909 20.443 6.8794 21.9764L21.0335 35.6236C22.6238 37.157 25.2022 37.157 26.7925 35.6236Z" fill="#E99F0E"/>
</svg>
