<svg width="157" height="150" viewBox="0 0 157 150" fill="none" xmlns="http://www.w3.org/2000/svg">
<mask id="mask0_176_59" style="mask-type:alpha" maskUnits="userSpaceOnUse" x="0" y="0" width="157" height="150">
<mask id="mask1_176_59" style="mask-type:luminance" maskUnits="userSpaceOnUse" x="0" y="0" width="157" height="150">
<path d="M156.777 0H0.777344V150H156.777V0Z" fill="white"/>
</mask>
<g mask="url(#mask1_176_59)">
<path d="M3.85771 101.836C2.04526 103.067 1.14349 104.225 1.01533 105.481C0.894929 106.668 1.48273 107.912 2.81358 109.284C5.04301 111.675 7.57112 113.766 10.3351 115.505C20.9716 121.903 31.6917 128.157 42.1993 134.093C48.363 137.575 54.7072 140.969 60.8417 144.252C63.4891 145.668 66.1343 147.087 68.7779 148.511C70.1127 149.325 71.6273 149.795 73.188 149.881C74.1887 149.879 75.1713 149.612 76.0355 149.106C80.6961 146.449 85.7528 143.508 91.4957 140.112L99.1811 135.566C116.529 125.307 134.467 114.703 152.077 104.212C154.642 102.684 156.112 100.427 156.111 98.0195C156.111 95.5662 154.593 93.261 151.952 91.6942C149.682 90.3468 147.351 89.0318 144.883 87.6429C144 87.1448 143.092 86.6325 142.15 86.0994C143.236 85.3026 144.295 84.5286 145.328 83.7766C148.102 81.75 150.722 79.8364 153.319 77.8974C155.615 76.1831 156.808 74.0091 156.675 71.776C156.54 69.4825 155.033 67.3961 152.436 65.9C150.151 64.5837 147.874 63.255 145.51 61.8738L143.05 60.4394C143.904 59.7901 144.749 59.151 145.584 58.522C148.063 56.6512 150.405 54.8856 152.724 53.0161C154.65 51.4642 155.617 49.5602 155.445 47.6544C155.268 45.6842 153.908 43.9135 151.614 42.6681C148.521 40.9882 145.74 39.4576 143.036 37.7381L141.861 36.9895C122.483 24.6583 102.446 11.9077 81.2974 1.79471C76.3941 -0.550738 72.1148 -0.291026 67.8335 2.61092C62.412 6.2856 57.018 9.83813 51.5095 13.455C45.7122 17.2646 39.9129 21.0685 34.1113 24.8668C24.6963 31.0356 14.9602 37.4181 5.4028 43.722C2.83041 45.42 1.56097 47.0408 1.40756 48.8252C1.25868 50.5629 2.22841 52.3895 4.37163 54.4096C6.85625 56.6621 9.46326 58.7749 12.1807 60.7383C13.2325 61.5285 14.2838 62.3186 15.3201 63.1245C16.0082 63.6596 16.7318 64.1505 17.4989 64.6707L17.8872 64.9357C16.6056 65.9046 15.3446 66.852 14.1044 67.7786C10.7546 70.2883 7.59003 72.6598 4.48494 75.1637C2.30612 76.9169 1.29627 78.4838 1.30468 80.087C1.31375 81.702 2.3572 83.2721 4.58845 85.0312C6.33617 86.4084 8.22108 87.6474 10.0438 88.8461C11.1443 89.5688 12.2796 90.3162 13.3677 91.0825C14.1018 91.6227 14.806 92.2026 15.4774 92.8195C15.6314 92.9565 15.7874 93.0955 15.948 93.2357C14.8152 94.0461 13.7039 94.8461 12.6143 95.6344C9.61084 97.8071 6.77251 99.8559 3.85771 101.836ZM30.6559 101.044C36.2875 104.187 42.1132 107.437 47.8638 110.553C50.8414 112.165 53.8922 113.74 56.8458 115.264C60.6649 117.234 64.6136 119.271 68.4187 121.401C72.2643 123.552 76.1462 123.69 81.0081 121.849C93.9069 116.965 105.541 110.059 115.214 103.949C119.848 101.021 124.34 98.0656 129.101 94.9377C131.114 93.6143 133.149 92.2799 135.205 90.9338L146.32 97.787C143.49 99.5351 140.683 101.273 137.898 103C130.915 107.327 124.321 111.414 117.547 115.525C111.631 119.117 105.6 122.742 99.7675 126.247C92.0646 130.877 84.0957 135.662 76.2957 140.436C74.8153 141.339 73.8321 141.112 72.4248 140.337C67.4833 137.61 62.5393 134.887 57.5934 132.169C47.7622 126.76 37.5969 121.168 27.6233 115.624C23.6935 113.44 19.8318 111.168 15.7435 108.763C14.1123 107.804 12.4512 106.827 10.7443 105.831L23.4534 97.0318C25.8619 98.3695 28.2619 99.7072 30.6534 101.044H30.6559ZM136.212 54.6355C129.398 59.4459 122.961 63.9902 116.226 68.2877C108.417 73.2721 100.323 78.1065 92.4964 82.7818C87.9866 85.4753 83.3235 88.2611 78.7626 91.0455C76.9598 92.1494 75.651 92.1234 73.7686 90.9552C64.1889 85.0136 54.4242 79.0201 44.9794 73.2279C37.0733 68.3766 28.8986 63.3577 20.8765 58.3993C18.2873 56.7986 15.8276 55.0642 13.2248 53.2265C12.2754 52.5577 11.315 51.8841 10.3437 51.2057C12.5583 49.6906 14.7361 48.1947 16.8769 46.7181C22.2107 43.0466 27.2493 39.5752 32.4122 36.1557C38.4476 32.1551 44.6151 28.1331 50.58 24.2441C56.3863 20.4577 62.3894 16.5427 68.2665 12.6505L68.4543 12.5259C76.5022 7.19469 76.5028 7.19664 85.1223 11.7817C102.287 20.9109 119.822 31.6414 141.979 46.5751C142.601 46.994 143.204 47.4765 143.968 48.0882C144.198 48.272 144.442 48.4674 144.706 48.6765C141.82 50.6759 138.972 52.6855 136.211 54.6355H136.212ZM25.1888 69.2513C26.8632 70.3604 28.5405 71.4799 30.2204 72.6091C34.2117 75.2818 38.3382 78.0468 42.4933 80.652C48.9747 84.7182 55.6075 88.7779 62.0236 92.7039C65.6916 94.9494 69.3598 97.1994 73.0275 99.4539C76.3158 101.484 79.2849 100.222 81.2327 99.0974C83.772 97.6305 86.314 96.1675 88.8592 94.7091C96.8366 90.1286 105.086 85.3916 113.078 80.5247C120.001 76.3091 126.576 71.7636 133.84 66.6864C135.726 65.3682 136.941 65.3468 138.655 66.5929C140.568 67.9844 142.576 69.2598 144.701 70.6097C145.393 71.0487 146.103 71.502 146.83 71.9675C145.351 73.0214 143.914 74.0656 142.5 75.0929C138.927 77.6903 135.552 80.1422 132.013 82.3786C116.294 92.3247 102.452 100.895 89.6955 108.58C87.1672 110.01 84.5339 111.245 81.8185 112.275C80.3556 112.873 78.8415 113.492 77.3858 114.165C76.3889 114.658 75.284 114.889 74.1745 114.836C73.0644 114.782 71.9866 114.446 71.0422 113.86C61.8295 108.877 52.6084 103.909 43.3787 98.9578C34.2828 94.0656 25.1913 89.1688 16.104 84.2669C14.4436 83.3688 12.8306 82.2942 11.1197 81.1572C10.5268 80.7624 9.91766 80.3572 9.28331 79.9429L25.1888 69.2513Z" fill="black"/>
</g>
</mask>
<g mask="url(#mask0_176_59)">
<rect x="-3" y="-1" width="160" height="155" fill="#F5F5F5"/>
</g>
</svg>
