<svg width="157" height="50" viewBox="0 0 157 50" fill="none" xmlns="http://www.w3.org/2000/svg">
<path d="M64.167 10.1267H68.3417V15.4221H67.8047C66.5039 15.4221 65.5712 15.1977 65.0065 14.7489C64.4468 14.3 64.167 13.5359 64.167 12.4567V10.1267ZM62.6544 20.4226C61.8376 20.4226 61.1116 20.12 60.4763 19.5147C59.9166 18.9802 59.4779 18.2691 59.1604 17.3814C58.8679 16.5645 58.7217 15.755 58.7217 14.9531C58.7217 13.7478 59.0192 12.6761 59.6141 11.7381C60.0377 11.0723 60.5948 10.6033 61.2855 10.3309C61.6384 10.1948 62.0317 10.1267 62.4653 10.1267H63.0477V20.4226H62.6544ZM64.167 18.4481H67.9484V18.66C67.9484 19.129 67.7795 19.5249 67.4417 19.8476C67.0282 20.2309 66.4409 20.4226 65.6795 20.4226H64.167V18.4481ZM79.8673 13.3266C79.8673 14.8497 79.2019 15.8508 77.8706 16.33C78.6169 16.6073 79.1794 17.0587 79.5575 17.684C79.8849 18.2388 80.0489 18.8844 80.0489 19.6207V20.4226H75.5417V10.1116H75.9345C77.2658 10.1116 78.2466 10.3638 78.8767 10.8681C79.5371 11.3976 79.8673 12.2171 79.8673 13.3266ZM70.2173 10.1267H74.2864V20.4226H70.2173V10.1267ZM87.3244 10.1267H91.5219V12.9862H90.7355C89.3689 12.9862 88.4361 12.7719 87.9369 12.3432C87.5286 11.9902 87.3244 11.4203 87.3244 10.6335V10.1267ZM81.947 10.1267H86.0163V14.2723H89.0486V16.2467H86.0163V20.4074H81.947V10.1267ZM87.3167 19.6888C87.3167 18.6448 87.9221 17.9362 89.1324 17.5631C89.5956 17.4218 90.1933 17.3512 90.9241 17.3512H91.5219V20.4226H87.3167V19.6888ZM99.0318 10.1267H99.7126C101.568 10.1267 102.674 10.7546 103.033 12.0104C103.154 12.4239 103.214 12.898 103.214 13.4326V20.4226H99.0318V10.1267ZM93.4502 13.4326C93.4502 12.318 93.7051 11.501 94.2141 10.9816C94.7738 10.4116 95.6862 10.1267 96.9521 10.1267H97.6329V20.4226H93.4502V13.4326ZM114.09 10.1267H117.478V14.4009H116.631C116.076 14.4009 115.667 14.3429 115.406 14.2269C115.144 14.1059 114.937 13.9722 114.785 13.8259C114.639 13.6747 114.513 13.478 114.407 13.2359C114.195 12.7416 114.09 12.0557 114.09 11.1782V10.1267ZM109.197 10.1267H113.265V20.4226H109.197V10.1267ZM104.961 10.1267H108.349V11.1782C108.349 12.4743 108.115 13.3569 107.646 13.8259C107.263 14.2092 106.65 14.4009 105.808 14.4009H104.961V10.1267ZM119.512 10.1267H123.581V20.4226H119.512V10.1267ZM131.242 13.3342C131.242 12.2045 131.529 11.39 132.105 10.8907C132.695 10.3814 133.639 10.1267 134.94 10.1267H135.402V15.5659C135.402 17.911 134.731 19.4139 133.39 20.0746C132.921 20.3066 132.359 20.4226 131.703 20.4226H131.242V13.3342ZM129.457 20.4226C128.192 20.4226 127.249 19.9813 126.629 19.0987C126.054 18.2817 125.767 17.1041 125.767 15.5659V10.1267H126.228C127.529 10.1267 128.474 10.3814 129.064 10.8907C129.639 11.39 129.926 12.2045 129.926 13.3342V20.4226H129.457ZM142.776 10.1267H146.973V12.9862H146.187C144.82 12.9862 143.887 12.7719 143.388 12.3432C142.98 11.9902 142.776 11.4203 142.776 10.6335V10.1267ZM137.398 10.1267H141.468V14.2723H144.5V16.2467H141.468V20.4074H137.398V10.1267ZM142.768 19.6888C142.768 18.6448 143.373 17.9362 144.583 17.5631C145.047 17.4218 145.645 17.3512 146.375 17.3512H146.973V20.4226H142.768V19.6888ZM58.7444 29.845H62.8133V40.1257H58.7444V29.845ZM64.114 39.4071C64.114 38.3631 64.7191 37.6545 65.9291 37.2814C66.393 37.1401 66.9904 37.0695 67.7215 37.0695H68.319V40.1409H64.114V39.4071ZM75.8289 29.845H76.5097C78.3648 29.845 79.4716 30.4729 79.8299 31.7287C79.951 32.1422 80.0109 32.6163 80.0109 33.1509V40.1409H75.8289V29.845ZM70.2475 33.1509C70.2475 32.0363 70.5022 31.2193 71.0112 30.6999C71.5709 30.13 72.4833 29.845 73.7492 29.845H74.43V40.1409H70.2475V33.1509ZM91.5521 40.4208C91.5521 42.8062 90.3546 43.999 87.9601 43.999H87.4913V29.845H91.5521V40.4208ZM81.9174 29.845H86.0994V40.1409H85.4186C83.5634 40.1409 82.4567 39.5104 82.0983 38.2497C81.9772 37.8411 81.9174 37.3696 81.9174 36.835V29.845ZM98.9262 29.845H103.124V32.7045H102.337C100.971 32.7045 100.038 32.4902 99.5387 32.0615C99.1304 31.7085 98.9262 31.1386 98.9262 30.3519V29.845ZM93.5488 29.845H97.6174V33.9906H100.65V35.965H97.6174V40.1257H93.5488V29.845ZM98.9185 39.4071C98.9185 38.3631 99.5232 37.6545 100.733 37.2814C101.197 37.1401 101.795 37.0695 102.526 37.0695H103.124V40.1409H98.9185V39.4071ZM114.672 33.045C114.672 34.568 114.007 35.5691 112.675 36.0483C113.422 36.3257 113.983 36.777 114.362 37.4023C114.69 37.9571 114.854 38.6027 114.854 39.339V40.1409H110.346V29.8299H110.739C112.071 29.8299 113.051 30.0821 113.681 30.5864C114.342 31.1159 114.672 31.9354 114.672 33.045ZM105.022 29.845H109.09V40.1409H105.022V29.845Z" fill="white"/>
<path d="M27.7196 47.1711L41.9766 32.9102C43.5385 31.3479 43.5385 28.8149 41.9766 27.2526L27.7196 12.9917C26.1577 11.4294 23.6254 11.4294 22.0635 12.9917L7.80645 27.2526C6.24456 28.8149 6.24456 31.3479 7.80645 32.9102L22.0635 47.1711C23.6254 48.7334 26.1577 48.7334 27.7196 47.1711Z" fill="#717171"/>
<path d="M27.7196 42.1916L41.9766 27.9307C43.5385 26.3684 43.5385 23.8354 41.9766 22.2731L27.7196 8.01224C26.1577 6.44993 23.6254 6.44993 22.0635 8.01224L7.80645 22.2731C6.24456 23.8354 6.24456 26.3684 7.80645 27.9307L22.0635 42.1916C23.6254 43.7539 26.1577 43.7539 27.7196 42.1916Z" fill="#D7D7D7"/>
<path d="M27.7196 37.212L41.9766 22.9511C43.5385 21.3888 43.5385 18.8558 41.9766 17.2935L27.7196 3.03262C26.1577 1.47031 23.6254 1.47031 22.0635 3.03262L7.80645 17.2935C6.24456 18.8558 6.24456 21.3888 7.80645 22.9511L22.0635 37.212C23.6254 38.7743 26.1577 38.7743 27.7196 37.212Z" fill="#E99F0E"/>
</svg>
