<svg width="167" height="60" viewBox="0 0 167 60" fill="none" xmlns="http://www.w3.org/2000/svg">
<rect width="167" height="60" fill="#090909"/>
<path d="M69.167 15.1265H73.3417V20.4219H72.8047C71.5039 20.4219 70.5712 20.1975 70.0065 19.7487C69.4468 19.2998 69.167 18.5357 69.167 17.4565V15.1265ZM67.6544 25.4223C66.8376 25.4223 66.1116 25.1197 65.4763 24.5145C64.9166 23.9799 64.4779 23.2689 64.1604 22.3812C63.8679 21.5642 63.7217 20.7548 63.7217 19.9529C63.7217 18.7475 64.0192 17.6758 64.6141 16.7378C65.0377 16.0721 65.5948 15.603 66.2855 15.3307C66.6384 15.1946 67.0317 15.1265 67.4653 15.1265H68.0477V25.4223H67.6544ZM69.167 23.4479H72.9484V23.6597C72.9484 24.1287 72.7795 24.5246 72.4417 24.8474C72.0282 25.2307 71.4409 25.4223 70.6795 25.4223H69.167V23.4479ZM84.8673 18.3264C84.8673 19.8495 84.2019 20.8506 82.8706 21.3297C83.6169 21.6071 84.1794 22.0584 84.5575 22.6838C84.8849 23.2386 85.0489 23.8841 85.0489 24.6204V25.4223H80.5417V15.1113H80.9345C82.2658 15.1113 83.2466 15.3635 83.8767 15.8678C84.5371 16.3974 84.8673 17.2169 84.8673 18.3264ZM75.2173 15.1265H79.2864V25.4223H75.2173V15.1265ZM92.3244 15.1265H96.5219V17.986H95.7355C94.3689 17.986 93.4361 17.7717 92.9369 17.3429C92.5286 16.9899 92.3244 16.4201 92.3244 15.6333V15.1265ZM86.947 15.1265H91.0163V19.272H94.0486V21.2465H91.0163V25.4072H86.947V15.1265ZM92.3167 24.6885C92.3167 23.6446 92.9221 22.936 94.1324 22.5628C94.5956 22.4215 95.1934 22.351 95.9241 22.351H96.5219V25.4223H92.3167V24.6885ZM104.032 15.1265H104.713C106.568 15.1265 107.674 15.7544 108.033 17.0101C108.154 17.4237 108.214 17.8977 108.214 18.4323V25.4223H104.032V15.1265ZM98.4502 18.4323C98.4502 17.3177 98.7051 16.5008 99.2141 15.9813C99.7738 15.4114 100.686 15.1265 101.952 15.1265H102.633V25.4223H98.4502V18.4323ZM119.09 15.1265H122.478V19.4006H121.631C121.076 19.4006 120.667 19.3427 120.406 19.2266C120.144 19.1056 119.937 18.972 119.785 18.8257C119.639 18.6744 119.513 18.4777 119.407 18.2356C119.195 17.7414 119.09 17.0555 119.09 16.1779V15.1265ZM114.197 15.1265H118.265V25.4223H114.197V15.1265ZM109.961 15.1265H113.349V16.1779C113.349 17.4741 113.115 18.3567 112.646 18.8257C112.263 19.209 111.65 19.4006 110.808 19.4006H109.961V15.1265ZM124.512 15.1265H128.581V25.4223H124.512V15.1265ZM136.242 18.334C136.242 17.2043 136.529 16.3898 137.105 15.8905C137.695 15.3811 138.639 15.1265 139.94 15.1265H140.402V20.5656C140.402 22.9108 139.731 24.4137 138.39 25.0744C137.921 25.3063 137.359 25.4223 136.703 25.4223H136.242V18.334ZM134.457 25.4223C133.192 25.4223 132.249 24.981 131.629 24.0984C131.054 23.2815 130.767 22.1039 130.767 20.5656V15.1265H131.228C132.529 15.1265 133.474 15.3811 134.064 15.8905C134.639 16.3898 134.926 17.2043 134.926 18.334V25.4223H134.457ZM147.776 15.1265H151.973V17.986H151.187C149.82 17.986 148.887 17.7717 148.388 17.3429C147.98 16.9899 147.776 16.4201 147.776 15.6333V15.1265ZM142.398 15.1265H146.468V19.272H149.5V21.2465H146.468V25.4072H142.398V15.1265ZM147.768 24.6885C147.768 23.6446 148.373 22.936 149.583 22.5628C150.047 22.4215 150.645 22.351 151.375 22.351H151.973V25.4223H147.768V24.6885ZM63.7444 34.8448H67.8133V45.1255H63.7444V34.8448ZM69.114 44.4068C69.114 43.3629 69.7191 42.6543 70.9291 42.2811C71.393 42.1398 71.9904 42.0693 72.7215 42.0693H73.319V45.1406H69.114V44.4068ZM80.8289 34.8448H81.5097C83.3648 34.8448 84.4716 35.4727 84.8299 36.7284C84.951 37.142 85.0109 37.616 85.0109 38.1506V45.1406H80.8289V34.8448ZM75.2475 38.1506C75.2475 37.036 75.5022 36.2191 76.0112 35.6996C76.5709 35.1297 77.4833 34.8448 78.7492 34.8448H79.43V45.1406H75.2475V38.1506ZM96.5521 45.4206C96.5521 47.806 95.3546 48.9987 92.9601 48.9987H92.4913V34.8448H96.5521V45.4206ZM86.9174 34.8448H91.0994V45.1406H90.4186C88.5634 45.1406 87.4567 44.5102 87.0983 43.2494C86.9772 42.8409 86.9174 42.3694 86.9174 41.8348V34.8448ZM103.926 34.8448H108.124V37.7043H107.337C105.971 37.7043 105.038 37.49 104.539 37.0613C104.13 36.7082 103.926 36.1384 103.926 35.3516V34.8448ZM98.5488 34.8448H102.617V38.9903H105.65V40.9648H102.617V45.1255H98.5488V34.8448ZM103.918 44.4068C103.918 43.3629 104.523 42.6543 105.733 42.2811C106.197 42.1398 106.795 42.0693 107.526 42.0693H108.124V45.1406H103.918V44.4068ZM119.672 38.0447C119.672 39.5678 119.007 40.5689 117.675 41.048C118.422 41.3254 118.983 41.7767 119.362 42.4021C119.69 42.9569 119.854 43.6025 119.854 44.3387V45.1406H115.346V34.8296H115.739C117.071 34.8296 118.051 35.0818 118.681 35.5861C119.342 36.1157 119.672 36.9352 119.672 38.0447ZM110.022 34.8448H114.09V45.1406H110.022V34.8448Z" fill="white"/>
<path d="M32.7196 52.1707L46.9766 37.9099C48.5385 36.3476 48.5385 33.8146 46.9766 32.2522L32.7196 17.9914C31.1577 16.4291 28.6254 16.4291 27.0635 17.9914L12.8064 32.2522C11.2446 33.8146 11.2446 36.3476 12.8064 37.9099L27.0635 52.1707C28.6254 53.7331 31.1577 53.7331 32.7196 52.1707Z" fill="#717171"/>
<path d="M32.7196 47.1913L46.9766 32.9304C48.5385 31.3681 48.5385 28.8351 46.9766 27.2728L32.7196 13.0119C31.1577 11.4496 28.6254 11.4496 27.0635 13.0119L12.8064 27.2728C11.2446 28.8351 11.2446 31.3681 12.8064 32.9304L27.0635 47.1913C28.6254 48.7536 31.1577 48.7536 32.7196 47.1913Z" fill="#D7D7D7"/>
<path d="M32.7196 42.2118L46.9766 27.9509C48.5385 26.3886 48.5385 23.8556 46.9766 22.2933L32.7196 8.03238C31.1577 6.47007 28.6254 6.47007 27.0635 8.03238L12.8064 22.2933C11.2446 23.8556 11.2446 26.3886 12.8064 27.9509L27.0635 42.2118C28.6254 43.7741 31.1577 43.7741 32.7196 42.2118Z" fill="#E99F0E"/>
</svg>
