<svg width="163" height="160" viewBox="0 0 163 160" fill="none" xmlns="http://www.w3.org/2000/svg">
<mask id="mask0_176_47" style="mask-type:alpha" maskUnits="userSpaceOnUse" x="0" y="0" width="163" height="160">
<mask id="mask1_176_47" style="mask-type:luminance" maskUnits="userSpaceOnUse" x="0" y="0" width="163" height="160">
<path d="M162.024 0.135254H0.56543V159.625H162.024V0.135254Z" fill="white"/>
</mask>
<g mask="url(#mask1_176_47)">
<path d="M75.0898 37.8092C75.0898 34.6417 75.0767 31.5083 75.0977 28.3743C75.0104 27.5928 75.0891 26.8015 75.3281 26.0522C75.7146 25.2646 76.3985 24.267 77.1336 24.0832C78.4765 23.7491 79.1512 24.8465 79.2425 26.0916C79.3901 28.1033 79.4466 30.1235 79.4906 32.141C79.5299 33.9132 79.4984 35.6853 79.4984 38.0205C81.0257 37.9345 82.5563 37.9448 84.0823 38.0514C87.618 38.5364 91.1707 39.0228 94.6369 39.8307C96.0421 40.2147 97.2865 41.042 98.1844 42.1896C98.779 42.966 98.7823 44.5275 98.4377 45.5284C98.2959 45.9412 96.5094 46.0429 95.5433 45.8723C91.9255 45.2337 88.3511 44.3457 84.7321 43.7175C83.3367 43.4753 81.8645 43.6782 79.8437 43.6782C80.1718 53.3263 80.4882 62.5636 80.8131 72.0726C82.9396 72.3641 85.0484 72.769 87.131 73.2862C91.4031 74.5785 95.8741 75.5722 99.7944 77.5977C108.149 81.9131 111.568 89.4118 111.003 98.5519C110.203 111.467 101.612 119.985 88.636 121.233C86.8678 121.403 85.0924 121.522 83.4456 121.655C83.4456 126.167 83.4909 130.402 83.422 134.635C83.422 136.195 83.2422 137.75 82.8871 139.269C82.4447 141.021 81.2463 142.264 79.312 142.312C77.194 142.365 75.9306 140.98 75.4718 139.146C75.1082 137.396 74.9448 135.612 74.9848 133.825C74.9192 129.697 74.9651 125.568 74.9651 121.26C69.3626 120.32 63.8448 119.428 58.3407 118.454C56.3501 118.117 54.382 117.657 52.4484 117.076C49.8349 116.268 48.6015 114.587 49.0635 112.814C49.517 111.072 50.931 110.487 53.8156 110.901C59.4772 111.713 65.1328 112.565 70.7974 113.356C72.0976 113.537 73.4234 113.539 74.8056 113.628V77.7395C71.4005 77.1192 68.2344 76.8469 65.2739 75.9208C62.0001 74.8962 58.6082 73.722 55.8096 71.8173C50.0824 67.9206 48.2616 61.2687 50.8915 54.832C54.5874 45.7817 61.5569 40.6846 71.0776 38.9197C72.0693 38.7359 73.0624 38.5508 74.0489 38.3415C74.4105 38.1954 74.759 38.0173 75.0898 37.8092ZM82.828 114.198C88.8073 114.039 94.1774 113.213 98.7882 109.795C106.92 103.761 106.885 89.6678 98.7121 83.9885C93.5992 80.435 87.6771 79.3285 81.625 78.5277C81.4766 78.9169 81.3742 79.3226 81.3211 79.736C81.8055 91.052 82.3062 102.369 82.828 114.198ZM74.5149 44.6266C66.4596 45.6203 60.3671 49.1966 56.8537 56.4918C54.613 61.1453 55.9969 65.4371 60.5046 67.9778C64.7708 70.3819 69.5011 71.0199 74.5149 71.333V44.6266Z" fill="black"/>
<path d="M161.218 73.2162C159.371 57.01 152.865 41.6868 142.489 29.1016C133.937 18.6081 124.737 11.1285 114.365 6.24537C106.271 2.34594 97.4042 0.315514 88.4202 0.304199C85.6597 0.308373 82.9024 0.48859 80.1655 0.843723C68.7741 2.32048 57.2272 5.62513 43.8399 11.2499C25.7315 18.8634 13.1233 31.9482 6.37542 50.1307C1.64209 62.6165 -0.182134 76.0175 1.0414 89.3142C2.46433 104.252 6.05874 115.83 12.3511 125.741C21.4427 140.046 32.8941 149.467 47.3677 154.532C56.1416 157.607 65.7996 159.152 77.7502 159.395C84.7841 159.395 91.3337 158.545 97.6667 157.722L98.8672 157.567C112.693 155.78 124.434 150.789 134.768 142.325C144.485 134.511 151.841 124.151 156.013 112.401C160.961 98.3658 162.661 85.5449 161.218 73.2162ZM144.894 117.775C137.071 133.617 123.913 144.011 105.771 148.664C103.592 149.224 101.34 149.629 98.9591 150.053C97.7776 150.262 96.5437 150.485 95.2488 150.735C89.6043 151.584 81.9908 151.713 77.7948 151.713C75.9268 151.713 74.7336 151.686 74.7001 151.686C63.6794 151.551 54.1971 149.683 45.7192 145.966C34.4229 141.016 25.3925 132.66 18.1216 120.426C13.7314 113.048 10.9461 104.314 9.36099 92.9431C7.32759 78.4794 9.10568 63.7358 14.52 50.1707C20.219 35.7182 30.4691 24.7521 44.984 17.5829C48.3359 15.9237 61.9597 11.9312 65.5407 11.2027C70.5836 10.1964 75.6958 9.58095 80.833 9.36166C101.153 8.87597 109.179 12.1465 121.588 21.6227C134.584 31.5432 143.744 44.0136 148.816 58.6821C155.708 78.6658 154.393 98.5476 144.894 117.775Z" fill="black"/>
</g>
</mask>
<g mask="url(#mask0_176_47)">
<rect width="163" height="160" fill="#F5F5F5"/>
</g>
</svg>
