<svg width="41" height="50" viewBox="0 0 41 50" fill="none" xmlns="http://www.w3.org/2000/svg">
<path d="M23.7196 47.1711L37.9766 32.9102C39.5385 31.3479 39.5385 28.8149 37.9766 27.2526L23.7196 12.9917C22.1577 11.4294 19.6254 11.4294 18.0635 12.9917L3.80645 27.2526C2.24456 28.8149 2.24456 31.3479 3.80645 32.9102L18.0635 47.1711C19.6254 48.7334 22.1577 48.7334 23.7196 47.1711Z" fill="#717171"/>
<path d="M23.7196 42.1916L37.9766 27.9307C39.5385 26.3684 39.5385 23.8354 37.9766 22.2731L23.7196 8.01224C22.1577 6.44993 19.6254 6.44993 18.0635 8.01224L3.80645 22.2731C2.24456 23.8354 2.24456 26.3684 3.80645 27.9307L18.0635 42.1916C19.6254 43.7539 22.1577 43.7539 23.7196 42.1916Z" fill="#D7D7D7"/>
<path d="M23.7196 37.212L37.9766 22.9511C39.5385 21.3888 39.5385 18.8558 37.9766 17.2935L23.7196 3.03262C22.1577 1.47031 19.6254 1.47031 18.0635 3.03262L3.80645 17.2935C2.24456 18.8558 2.24456 21.3888 3.80645 22.9511L18.0635 37.212C19.6254 38.7743 22.1577 38.7743 23.7196 37.212Z" fill="#E99F0E"/>
</svg>
