<svg width="157" height="142" viewBox="0 0 157 142" fill="none" xmlns="http://www.w3.org/2000/svg">
<mask id="mask0_171_41" style="mask-type:alpha" maskUnits="userSpaceOnUse" x="0" y="0" width="157" height="142">
<mask id="mask1_171_41" style="mask-type:luminance" maskUnits="userSpaceOnUse" x="0" y="0" width="157" height="142">
<path d="M156.777 0H0.777344V142H156.777V0Z" fill="white"/>
</mask>
<g mask="url(#mask1_171_41)">
<path d="M79.9126 18.8898C80.5482 19.5158 81.1593 20.1197 81.7522 20.7046C83.7848 22.7128 85.5409 24.4464 87.3702 26.1758C89.1004 27.8153 90.8883 29.4491 92.6166 31.0287C93.8082 32.1178 94.9967 33.2101 96.1826 34.3053C98.085 36.0738 99.9757 37.8547 101.852 39.6232L104.332 41.9577C104.434 42.0546 104.565 42.1163 104.704 42.1333C104.844 42.1502 104.986 42.1214 105.108 42.0519L107.22 40.8559C107.357 40.7785 107.463 40.6547 107.518 40.5061C107.573 40.3575 107.573 40.1938 107.519 40.0449C107.441 39.8273 107.378 39.6116 107.317 39.4006C107.198 38.8971 107 38.4159 106.73 37.9757C98.6423 26.2414 89.8733 14.9982 80.4686 4.30383C79.5643 3.25301 78.5325 2.32026 77.3972 1.52848C74.8487 -0.214604 72.0893 0.192318 70.0218 2.62195C69.5188 3.2441 69.0664 3.90591 68.6683 4.60089L66.2305 8.57783C61.4833 16.3168 56.5742 24.3198 51.7796 32.2125C50.967 33.3811 50.4019 34.7052 50.1193 36.103C50.0746 36.7508 50.1815 37.4004 50.4314 37.9992C50.6813 38.5979 51.0672 39.1292 51.5582 39.5506C52.4748 40.187 54.4063 40.3542 55.3507 39.6429C57.0042 38.4132 58.4415 36.9133 59.6029 35.206C61.4691 32.4149 63.2925 29.5343 65.057 26.7477C66.5652 24.3656 68.1252 21.9012 69.7014 19.51C70.003 19.054 70.2684 18.5632 70.5247 18.0896C71.0419 16.9235 71.8284 15.898 72.8181 15.0992C72.7482 15.8711 72.6712 16.6337 72.5961 17.388C72.3074 19.8093 72.1508 22.2443 72.1255 24.6828L72.1411 26.6853C72.2602 42.0135 72.3838 57.8647 72.8123 73.4492C73.068 82.7398 73.5548 92.1743 74.026 101.299C74.2357 105.362 74.4396 109.425 74.6364 113.488C74.6474 113.72 74.6532 113.954 74.6591 114.187C74.6584 114.875 74.7147 115.563 74.8267 116.243C75.2009 118.197 76.2184 119.281 77.6535 119.281C77.8108 119.281 77.9674 119.269 78.1221 119.245C79.1332 119.09 80.7884 118.225 81.136 117.065C81.8901 114.69 82.3341 112.226 82.4578 109.737C82.6021 105.359 82.5827 100.675 82.3931 94.9974C81.8752 79.3084 81.3392 63.6192 80.7845 47.9301C80.4945 39.5869 80.2058 31.244 79.9184 22.9011C79.8854 21.9241 79.8925 20.9281 79.9016 19.6697C79.9093 19.4176 79.9113 19.1588 79.9126 18.8898Z" fill="black"/>
<path d="M151.003 73.4097C149.991 73.4279 149.024 73.8318 148.296 74.5385C147.568 75.2459 147.134 76.2034 147.079 77.2202C146.828 81.5506 146.193 92.2898 145.761 98.4557C145.372 103.996 145.13 109.637 144.895 115.091C144.761 118.228 144.626 121.364 144.464 124.499C144.393 125.51 144.268 126.516 144.09 127.512C144.036 127.85 143.982 128.192 143.93 128.538C143.653 128.583 143.387 128.629 143.131 128.672C142.415 128.811 141.691 128.91 140.964 128.967C137.044 129.185 133.059 129.438 129.207 129.683C120.029 130.269 110.54 130.873 101.206 131.043C85.3863 131.331 69.2937 131.301 53.7302 131.271C48.7817 131.261 43.8335 131.254 38.8855 131.251H38.7755C31.2888 131.251 23.8383 131.097 17.5375 130.945C15.96 130.907 14.3935 130.74 12.5785 130.546C11.8503 130.468 11.0897 130.386 10.2793 130.308C10.1265 128.036 10.0159 123.338 9.87867 117.52C9.52783 102.625 9.04682 82.2247 7.31852 78.4474C7.27819 78.3588 7.21918 78.2807 7.14549 78.2175C7.0718 78.1543 6.98529 78.108 6.89201 78.0826C6.41373 77.9035 5.9027 77.8312 5.39401 77.8696C4.88533 77.9087 4.39095 78.0572 3.94477 78.3061C3.62675 78.5301 3.361 78.8206 3.16583 79.1581C2.97066 79.4955 2.85078 79.872 2.8146 80.2602C2.53626 82.2143 1.09021 107.127 1.01318 121.721C1.12063 123.784 1.29349 126.084 1.46049 128.306C1.58413 129.944 1.70576 131.564 1.80026 133.062C2.04106 136.909 4.21409 139.31 8.08305 140.006C10.5121 140.396 12.9639 140.626 15.4227 140.696C26.7622 141.233 38.2078 141.392 49.5764 141.392C58.0107 141.392 66.4061 141.303 74.6748 141.217C79.2887 141.169 83.9034 141.125 88.518 141.087C98.8354 141.012 109.702 140.787 121.74 140.4C127.203 140.224 132.751 139.927 138.117 139.64C141.498 139.459 144.879 139.278 148.26 139.124C152.509 138.929 154.733 137.254 155.693 133.513C156.156 131.402 156.402 129.247 156.426 127.084L156.47 126.116C157.168 112.097 155.758 87.2325 155.119 77.1929C155.048 76.1507 154.581 75.1762 153.814 74.4721C153.048 73.7673 152.041 73.3869 151.003 73.4097Z" fill="black"/>
</g>
</mask>
<g mask="url(#mask0_171_41)">
<rect y="-1" width="157" height="143" fill="#F5F5F5"/>
</g>
</svg>
